<svg version="1.1" viewBox="0.000000 0.000000 107.000000 107.000000" xmlns="http://www.w3.org/2000/svg" xmlns:xlink="http://www.w3.org/1999/xlink" overflow="hidden"><g stroke="#808184" stroke-width="2.519000" stroke-linecap="round" stroke-linejoin="round" stroke-miterlimit="10.000000" fill="none"><circle cx="53.500000" cy="53.500000" r="52.200000"/><path d=" M 65.400002 74.000000 C 67.099998 72.400002 68.000000 70.099998 68.400002 69.400002 M 82.199997 78.300003 L 66.199997 73.500000 C 66.199997 73.500000 66.000000 73.400002 65.699997 73.699997 M 65.699997 73.699997 C 64.699997 74.599998 63.500000 75.400002 62.299999 75.900002 C 59.200001 77.400002 53.900002 77.599998 49.700001 77.800003 C 46.099998 78.000000 41.799999 77.900002 39.799999 77.800003 C 35.799999 77.599998 32.500000 75.500000 32.500000 75.500000 L 33.200001 75.099998 C 32.200001 75.199997 31.400000 75.099998 31.000000 75.000000 C 30.000000 74.599998 28.900000 74.000000 28.900000 72.199997 C 28.900000 71.300003 28.799999 70.300003 29.000000 69.500000 L 29.400000 69.099998 C 29.200001 69.099998 29.000000 69.199997 28.799999 69.199997 C 24.900000 69.599998 23.500000 67.199997 23.600000 64.900002 C 23.700001 62.900002 24.299999 61.299999 25.799999 60.700001 L 25.400000 60.700001 C 21.500000 60.799999 20.299999 57.799999 20.500000 55.500000 C 20.799999 53.200001 21.700001 51.599998 24.000000 51.500000 L 23.200001 51.000000 C 20.600000 50.099998 20.100000 47.200001 20.500000 45.200001 C 20.799999 44.000000 21.200001 43.000000 21.900000 42.299999 L 22.000000 42.200001 C 22.799999 41.099998 27.799999 38.900002 29.700001 38.299999 C 31.500000 37.700001 37.099998 35.700001 37.099998 35.700001 L 38.400002 34.500000 C 39.200001 33.299999 39.599998 32.400002 40.000000 31.700001 C 40.799999 30.100000 45.599998 27.799999 48.900002 28.900000 C 52.400002 30.000000 62.500000 36.599998 65.000000 39.500000 C 67.500000 42.500000 68.099998 44.700001 69.800003 45.599998 C 71.000000 46.200001 79.400002 47.299999 86.900002 48.200001 M 45.500000 66.300003 C 47.700001 65.800003 48.200001 67.300003 48.500000 68.699997 C 48.799999 70.099998 47.799999 71.500000 46.099998 72.199997 C 44.799999 72.699997 42.599998 73.599998 38.799999 74.300003 C 36.599998 74.800003 33.000000 75.500000 30.900000 75.000000 M 24.000000 51.500000 C 27.100000 51.700001 47.500000 51.200001 47.500000 51.200001 L 50.500000 51.000000 M 43.099998 43.500000 C 46.000000 43.799999 47.299999 44.299999 47.299999 44.299999 C 47.900002 44.400002 48.599998 44.599998 49.299999 45.000000 M 25.799999 60.799999 C 28.700001 60.500000 33.000000 60.000000 37.000000 59.700001 C 44.000000 59.200001 48.299999 58.299999 48.299999 58.299999 C 50.500000 58.099998 51.700001 56.599998 51.700001 54.900002 C 51.799999 53.099998 50.400002 51.700001 48.599998 51.599998 C 48.599998 51.599998 45.400002 51.299999 35.400002 51.099998 C 30.900000 51.000000 26.700001 51.400002 23.900000 51.500000 M 29.000000 69.300003 C 34.099998 68.199997 48.599998 65.699997 48.599998 65.699997 C 50.799999 65.400002 51.799999 63.799999 51.799999 62.000000 C 51.700001 60.200001 50.200001 58.900002 48.500000 59.000000 C 48.500000 59.000000 48.000000 58.900002 38.099998 59.599998 C 31.700001 60.000000 29.200001 60.500000 26.900000 60.700001 M 45.500000 40.400002 C 45.500000 40.400002 44.200001 42.900002 41.400002 44.799999 C 38.400002 46.700001 35.799999 46.099998 34.200001 45.400002 C 32.000000 44.400002 31.299999 42.299999 31.900000 41.200001 C 32.099998 40.799999 33.599998 40.099998 35.599998 37.900002 C 36.099998 37.400002 36.799999 36.000000 37.900002 35.000000 M 64.300003 63.700001 C 64.300003 63.700001 54.200001 64.800003 52.500000 57.400002 C 51.299999 52.400002 50.299999 47.799999 49.799999 45.400002"/></g></svg>