<svg version="1.1" viewBox="0.000000 0.000000 107.000000 107.000000" xmlns="http://www.w3.org/2000/svg" xmlns:xlink="http://www.w3.org/1999/xlink" overflow="hidden"><circle cx="53.500000" cy="53.500000" r="52.200000" stroke="#808184" stroke-width="2.519000" stroke-linecap="round" stroke-linejoin="round" stroke-miterlimit="10.000000" fill="none"/><g stroke="#808184" stroke-width="2.519000" stroke-linecap="round" stroke-linejoin="round" stroke-miterlimit="10.000000" fill="none"><path d=" M 58.099998 18.799999 C 59.700001 22.100000 61.799999 24.000000 63.900002 26.600000 C 65.599998 28.799999 67.300003 31.100000 69.300003 33.099998 C 73.900002 38.000000 79.800003 42.000000 82.699997 48.099998 C 83.699997 50.299999 84.800003 53.000000 87.199997 53.299999 M 57.900002 18.600000 C 56.099998 18.400000 54.400002 20.000000 54.000000 21.799999 C 53.599998 23.600000 54.099998 25.500000 54.799999 27.200001 C 56.200001 30.400000 58.299999 33.299999 59.599998 36.599998 C 61.099998 40.299999 61.400002 44.500000 60.599998 48.400002 M 45.099998 51.000000 C 37.799999 49.799999 30.299999 48.299999 23.100000 46.500000 C 21.299999 46.000000 18.799999 45.400002 18.600000 43.299999 C 18.400000 41.200001 20.100000 40.500000 22.000000 40.599998 C 25.700001 40.900002 29.500000 41.400002 33.299999 42.099998 C 37.400002 42.900002 40.700001 43.400002 45.500000 44.000000 C 50.500000 44.700001 59.000000 46.500000 60.799999 43.500000 M 45.099998 51.000000 C 45.099998 51.900002 45.299999 54.400002 45.299999 55.299999 M 45.099998 55.299999 C 36.200001 56.500000 27.400000 54.900002 18.299999 55.599998 C 17.000000 55.700001 14.400000 55.900002 13.800000 57.299999 C 12.700000 59.900002 15.300000 60.900002 17.500000 61.000000 C 26.299999 61.400002 35.000000 61.400002 43.900002 61.099998 M 43.900002 60.900002 C 44.099998 61.400002 44.599998 62.400002 44.799999 62.900002 C 41.799999 64.300003 38.599998 65.400002 35.700001 66.699997 C 32.000000 68.300003 26.299999 70.699997 24.400000 71.400002 C 21.700001 72.500000 19.000000 73.099998 20.100000 75.800003 C 20.799999 77.400002 22.700001 77.500000 24.299999 77.000000 C 32.099998 74.800003 38.799999 72.199997 45.299999 69.900002 L 45.900002 69.699997 C 46.599998 70.400002 48.000000 71.699997 48.700001 72.400002 C 43.500000 77.000000 34.000000 83.000000 32.000000 84.300003 C 29.100000 86.199997 31.600000 89.500000 34.799999 88.000000 C 39.700001 85.699997 43.400002 84.000000 48.200001 81.199997 C 51.000000 79.500000 56.000000 78.000000 57.700001 77.800003 C 58.599998 77.699997 64.400002 78.599998 70.800003 77.199997 C 77.099998 75.800003 81.300003 73.000000 82.699997 71.500000 M 93.400002 50.799999 C 89.300003 50.599998 85.400002 50.200001 83.599998 49.900002 M 79.800003 74.000000 C 81.199997 73.900002 85.300003 74.400002 88.400002 74.900002 M 61.700001 53.400002 C 61.700001 53.400002 61.700001 60.400002 68.199997 62.599998"/></g></svg>