<svg version="1.1" viewBox="0.000000 0.000000 107.000000 107.000000" xmlns="http://www.w3.org/2000/svg" xmlns:xlink="http://www.w3.org/1999/xlink" overflow="hidden"><circle cx="53.500000" cy="53.500000" r="52.200000" stroke="#808184" stroke-width="2.519000" stroke-linecap="round" stroke-linejoin="round" stroke-miterlimit="10.000000" fill="none"/><g stroke="#808184" stroke-width="2.519000" stroke-linecap="round" stroke-linejoin="round" stroke-miterlimit="10.000000" fill="none"><path d=" M 39.599998 48.299999 C 39.599998 48.299999 36.299999 48.000000 35.099998 46.099998 C 32.599998 42.099998 37.900002 43.200001 43.099998 39.200001 C 49.000000 34.700001 54.700001 30.700001 59.400002 30.700001 C 62.400002 30.700001 66.699997 31.000000 69.599998 34.400002 C 71.900002 37.099998 73.599998 39.400002 72.400002 50.200001 C 71.300003 60.599998 72.199997 57.200001 69.400002 62.400002 C 66.599998 67.599998 56.000000 73.699997 52.299999 75.599998 C 48.599998 77.500000 42.700001 82.199997 40.299999 83.599998 C 38.099998 84.900002 35.599998 84.400002 34.099998 83.599998 C 32.599998 82.699997 33.099998 81.300003 33.099998 80.500000 C 31.000000 82.300003 26.000000 82.800003 24.600000 80.300003 C 23.200001 77.699997 24.500000 76.199997 26.799999 74.900002 C 26.799999 74.900002 22.600000 75.900002 20.900000 73.199997 C 19.200001 70.500000 22.700001 67.599998 24.299999 67.300003 C 24.299999 67.300003 21.299999 66.900002 20.799999 65.099998 C 20.100000 62.500000 22.299999 60.900002 26.100000 57.900002 C 29.900000 54.900002 36.700001 49.299999 39.599998 48.299999 Z M 24.200001 67.300003 C 24.200001 67.300003 28.000000 68.000000 31.900000 64.400002 C 35.799999 60.799999 41.400002 57.200001 44.000000 55.099998 M 26.500000 75.000000 C 26.500000 75.000000 30.400000 74.099998 33.400002 71.199997 C 36.500000 68.199997 44.200001 63.900002 45.000000 63.500000 M 33.099998 80.500000 C 34.400002 79.500000 35.299999 79.400002 37.500000 77.300003 C 38.900002 76.000000 45.299999 71.199997 47.400002 70.000000 M 39.599998 48.299999 C 39.599998 48.299999 43.500000 48.400002 46.400002 47.299999 C 49.400002 46.099998 51.099998 44.900002 55.299999 45.700001 C 60.099998 46.599998 63.700001 47.799999 66.500000 43.000000 M 44.099998 52.500000 C 44.099998 52.500000 43.799999 65.099998 49.400002 72.400002 M 68.000000 32.700001 C 69.699997 31.900000 77.800003 31.900000 85.400002 31.799999 M 72.900002 56.700001 C 75.599998 55.299999 81.099998 55.400002 86.599998 55.700001"/></g></svg>