<svg version="1.1" viewBox="0.000000 0.000000 107.000000 107.000000" xmlns="http://www.w3.org/2000/svg" xmlns:xlink="http://www.w3.org/1999/xlink" overflow="hidden"><path d=" M 77.300003 66.300003 L 85.599998 69.099998 M 58.299999 48.599998 C 57.500000 51.099998 55.599998 55.900002 54.099998 58.200001 M 58.299999 48.700001 C 58.200001 48.099998 52.000000 43.799999 51.599998 43.200001 C 51.200001 42.599998 49.900002 41.400002 48.200001 40.799999 C 46.500000 40.200001 42.200001 38.200001 40.299999 38.299999 C 38.400002 38.400002 32.799999 37.700001 31.400000 37.900002 C 30.600000 38.000000 26.799999 39.000000 23.700001 39.000000 C 21.000000 39.000000 20.000000 38.500000 19.299999 38.200001 C 17.900000 37.299999 17.100000 35.900002 18.100000 34.700001 C 19.100000 33.500000 21.799999 33.400002 23.500000 33.000000 C 25.700001 32.500000 30.200001 31.299999 31.700001 31.000000 C 37.700001 29.600000 38.500000 29.799999 42.900002 30.400000 C 48.700001 31.200001 53.299999 32.000000 57.400002 32.400002 C 61.500000 32.799999 63.000000 36.000000 68.500000 38.700001 C 76.599998 42.700001 82.599998 45.700001 90.400002 46.700001 M 37.700001 38.200001 C 35.099998 38.099998 34.599998 42.700001 34.400002 44.099998 C 34.200001 45.400002 33.400002 47.099998 31.799999 51.000000 C 30.000000 55.299999 28.799999 57.400002 28.700001 58.799999 C 28.600000 60.599998 30.000000 61.599998 30.900000 61.599998 C 31.799999 61.700001 33.400002 61.099998 34.500000 59.799999 C 35.799999 58.200001 36.400002 57.200001 37.900002 53.400002 C 39.299999 49.599998 42.400002 45.599998 42.400002 45.599998 C 43.700001 45.599998 48.400002 44.299999 51.200001 43.500000 M 58.700001 56.700001 C 57.000000 58.200001 48.900002 59.900002 43.799999 59.900002 C 40.799999 59.900002 36.400002 60.599998 33.400002 61.900002 C 31.299999 62.799999 30.100000 64.400002 29.700001 65.199997 C 29.000000 66.699997 29.700001 68.099998 31.000000 68.599998 C 32.299999 69.099998 32.900002 68.000000 35.799999 67.800003 C 38.799999 67.699997 40.900002 68.099998 43.000000 67.900002 C 46.000000 67.599998 53.700001 66.099998 57.599998 67.000000 C 61.500000 67.900002 65.900002 69.500000 70.000000 68.699997 C 72.699997 68.199997 79.300003 66.099998 79.599998 62.799999 M 22.400000 45.599998 C 22.400000 45.599998 22.600000 48.700001 27.400000 48.500000 C 28.600000 48.500000 30.900000 48.099998 33.099998 47.700001 M 16.799999 60.299999 L 22.500000 61.299999 M 34.400002 43.400002 C 32.799999 43.700001 26.100000 44.700001 22.000000 44.599998 C 17.299999 44.500000 16.600000 42.400002 16.500000 41.500000 C 16.400000 40.500000 17.500000 39.700001 18.000000 39.500000 C 18.400000 39.400002 21.799999 39.400002 23.700001 39.000000 M 17.000000 70.000000 L 23.000000 67.599998 M 24.200001 77.199997 L 27.600000 72.099998" stroke="#808184" stroke-width="2.519000" stroke-linecap="round" stroke-linejoin="round" stroke-miterlimit="10.000000" fill="none"/><circle cx="53.500000" cy="53.500000" r="52.200000" stroke="#808184" stroke-width="2.519000" stroke-linecap="round" stroke-linejoin="round" stroke-miterlimit="10.000000" fill="none"/></svg>